# xmcd
#
# Track frame offsets:
#       150
#       15687
#       29792
#       42692
#       56872
#       72523
#       87137
#       99978
#       112140
#       123788
#       138651
#       149671
#       164052
#       185937
#       197518
#       210491
#       222950
#       240783
#       253348
#       267844
#       285585
#       300637
#       315481
#       329378
#       336168
#
# Disc length: 4661 seconds
#
# Revision: 0
# Processed by: cddbd v1.5.2PL0 Copyright (c) Steve Scherf et al.
# Submitted via: WhereIsIt 3.93
#
DISCID=8e123319
DTITLE=5th Dimension - Stoned soul picinic - The age of Aquarius
DYEAR=1900
DGENRE=Soul
TTITLE0=Sweet blindness
TTITLE1=I'll never be the same again
TTITLE2=The sailboat song
TTITLE3=It's a great life
TTITLE4=Stoned soul picnic
TTITLE5=California soul
TTITLE6=Lovin' stew
TTITLE7=Broken wing bird
TTITLE8=Good news
TTITLE9=Bobbie's bllues
TTITLE10=The eleventh song
TTITLE11=East of Java (Bonus track)
TTITLE12=Aquarius/Let the sunshine in
TTITLE13=Blowing away
TTITLE14=Skinny man
TTITLE15=Wedding bell blues
TTITLE16=Don'tcha hear my callin' to ya
TTITLE17=The hideaway
TTITLE18=Workin' on a groovy thing
TTITLE19=Let it be me
TTITLE20=Sunshine of your love
TTITLE21=The winds of heaven
TTITLE22=Those were the days
TTITLE23=Let the sunshine in (Reprise)
TTITLE24=Chissa se tornera (Bonus track)
EXTD=Stoned soul picnic Tracks 1 to 11\nAge of Aquarius Tracks 13 to 23
EXTT0=
EXTT1=
EXTT2=
EXTT3=
EXTT4=
EXTT5=
EXTT6=
EXTT7=
EXTT8=
EXTT9=
EXTT10=
EXTT11=
EXTT12=
EXTT13=
EXTT14=
EXTT15=
EXTT16=
EXTT17=
EXTT18=
EXTT19=
EXTT20=
EXTT21=
EXTT22=
EXTT23=
EXTT24=
PLAYORDER=
